# Blender v3.0.1 OBJ File: ''
# www.blender.org
mtllib plane.mtl
o Plane
v -1.000000 0.000000 1.000000
v 1.000000 0.000000 1.000000
v -1.000000 -0.000000 -1.000000
v 1.000000 -0.000000 -1.000000
vt 0.000000 0.000000
vt 1.000000 0.000000
vt 1.000000 1.000000
vt 0.000000 1.000000
vn 0.0000 1.0000 -0.0000
g Plane_Plane_Diffuse
usemtl Diffuse
s 1
f 1/1/1 2/2/1 4/3/1 3/4/1
o Plane.001
v -1.000000 0.000000 -2.000000
v 1.000000 0.000000 -2.000000
v -1.000000 -0.000000 -4.000000
v 1.000000 -0.000000 -4.000000
vt 0.000000 0.000000
vt 1.000000 0.000000
vt 1.000000 1.000000
vt 0.000000 1.000000
vn 0.0000 1.0000 -0.0000
g Plane.001_Plane.001_Diffuse.001
usemtl Diffuse.001
s 1
f 5/5/2 6/6/2 8/7/2 7/8/2
